Alegreya-Italic.ufo
<glyph name="Eth" format="2">
  <advance width="684"/>
  <unicode hex="00D0"/>
  <anchor x="320" y="0" name="bottom"/>
  <anchor x="359" y="318" name="center"/>
  <anchor x="398" y="636" name="top"/>
  <outline>
    <contour>
      <point x="190" y="304" type="line"/>
      <point x="195" y="343" type="line"/>
      <point x="31" y="343" type="line"/>
      <point x="20" y="311" type="line"/>
      <point x="26" y="304" type="line"/>
    </contour>
    <contour>
      <point x="213" y="343" type="line"/>
      <point x="208" y="304" type="line"/>
      <point x="390" y="304" type="line"/>
      <point x="400" y="336" type="line"/>
      <point x="396" y="343" type="line"/>
    </contour>
    <component base="D" xOffset="10"/>
  </outline>
</glyph>
<glyph name="oslash" format="2">
  <advance width="406"/>
  <unicode hex="00F8"/>
  <anchor x="255" y="472" name="top"/>
  <anchor x="175" y="0" name="bottom"/>
  <anchor x="203" y="226" name="center"/>
  <anchor x="247" y="40" name="ogonek"/>
  <anchor x="414" y="452" name="topright"/>
  <outline>
    <contour>
      <point x="314" y="403" type="line"/>
      <point x="377" y="520" type="line"/>
      <point x="374" y="532" type="line"/>
      <point x="345" y="539" type="line"/>
      <point x="281" y="417" type="line"/>
    </contour>
    <contour>
      <point x="133" y="56" type="line"/>
      <point x="314" y="403" type="line"/>
      <point x="281" y="417" type="line"/>
      <point x="101" y="70" type="line"/>
    </contour>
    <contour>
      <point x="101" y="70" type="line"/>
      <point x="22" y="-82" type="line"/>
      <point x="24" y="-92" type="line"/>
      <point x="51" y="-98" type="line"/>
      <point x="133" y="56" type="line"/>
    </contour>
    <component base="o"/>
  </outline>
</glyph>
<glyph name="dcroat" format="2">
  <advance width="463"/>
  <unicode hex="0111"/>
  <anchor x="204" y="0" name="bottom"/>
  <anchor x="232" y="226" name="center"/>
  <anchor x="260" y="452" name="top"/>
  <anchor x="471" y="452" name="topright"/>
  <outline>
    <contour>
      <point x="405" y="584" type="line"/>
      <point x="405" y="584" type="line"/>
      <point x="238" y="585" type="line"/>
      <point x="231" y="546" type="line"/>
      <point x="240" y="537" type="line"/>
      <point x="383" y="538" type="line"/>
      <point x="522" y="539" type="line"/>
      <point x="526" y="576" type="line"/>
      <point x="513" y="589" type="line"/>
    </contour>
    <component base="d"/>
  </outline>
</glyph>
<glyph name="Hbar" format="2">
  <advance width="723"/>
  <unicode hex="0126"/>
  <anchor x="334" y="0" name="bottom"/>
  <anchor x="566" y="106" name="bottomright"/>
  <anchor x="373" y="318" name="center"/>
  <anchor x="412" y="636" name="top"/>
  <anchor x="70" y="636" name="topleft"/>
  <outline>
    <contour>
      <point x="414" y="495" type="curve" smooth="yes"/>
      <point x="274" y="495"/>
      <point x="67" y="496"/>
      <point x="67" y="496" type="curve"/>
      <point x="60" y="457" type="line"/>
      <point x="69" y="448" type="line"/>
      <point x="69" y="448"/>
      <point x="251" y="449"/>
      <point x="392" y="449" type="curve" smooth="yes"/>
      <point x="721" y="450" type="line"/>
      <point x="725" y="487" type="line"/>
      <point x="712" y="500" type="line"/>
      <point x="712" y="500"/>
      <point x="534" y="495"/>
    </contour>
    <component base="H"/>
  </outline>
</glyph>
<glyph name="Lcaron" format="2">
  <advance width="488"/>
  <unicode hex="013D"/>
  <anchor x="255" y="0" name="bottom"/>
  <anchor x="254" y="318" name="center"/>
  <anchor x="233" y="636" name="top"/>
  <anchor x="515" y="636" name="topright"/>
  <outline>
    <contour>
      <point x="516" y="626" type="curve"/>
      <point x="510" y="634" type="line"/>
      <point x="439" y="620" type="line"/>
      <point x="439" y="620"/>
      <point x="435" y="512"/>
      <point x="418" y="402" type="curve"/>
      <point x="429" y="400" type="line"/>
      <point x="455" y="414" type="line"/>
      <point x="489" y="516"/>
      <point x="516" y="626"/>
    </contour>
    <component base="L"/>
  </outline>
</glyph>
<glyph name="Lslash" format="2">
  <advance width="488"/>
  <unicode hex="0141"/>
  <anchor x="255" y="0" name="bottom"/>
  <anchor x="254" y="318" name="center"/>
  <anchor x="233" y="636" name="top"/>
  <anchor x="515" y="636" name="topright"/>
  <outline>
    <contour>
      <point x="163" y="315" type="line"/>
      <point x="163" y="309" type="line"/>
      <point x="384" y="418" type="line"/>
      <point x="379" y="449" type="line"/>
      <point x="371" y="454" type="line"/>
      <point x="163" y="351" type="line"/>
      <point x="163" y="357" type="line"/>
      <point x="34" y="293" type="line"/>
      <point x="39" y="261" type="line"/>
      <point x="48" y="258" type="line"/>
    </contour>
    <component base="L"/>
  </outline>
</glyph>
<glyph name="lslash" format="2">
  <advance width="274"/>
  <unicode hex="0142"/>
  <anchor x="109" y="0" name="bottom"/>
  <anchor x="137" y="226" name="center"/>
  <anchor x="204" y="730" name="top"/>
  <anchor x="270" y="452" name="topright"/>
  <outline>
    <contour>
      <point x="153" y="365" type="line"/>
      <point x="153" y="361" type="line"/>
      <point x="274" y="428" type="line"/>
      <point x="268" y="459" type="line"/>
      <point x="260" y="463" type="line"/>
      <point x="153" y="404" type="line"/>
      <point x="153" y="408" type="line"/>
      <point x="35" y="342" type="line"/>
      <point x="41" y="310" type="line"/>
      <point x="50" y="308" type="line"/>
    </contour>
    <component base="l" xOffset="12"/>
  </outline>
</glyph>
<glyph name="tbar" format="2">
  <advance width="285"/>
  <unicode hex="0167"/>
  <anchor x="115" y="0" name="bottom"/>
  <anchor x="143" y="226" name="center"/>
  <anchor x="181" y="545" name="top"/>
  <anchor x="283" y="482" name="topright"/>
  <outline>
    <contour>
      <point x="148" y="285" type="line"/>
      <point x="148" y="285" type="line"/>
      <point x="11" y="286" type="line"/>
      <point x="4" y="247" type="line"/>
      <point x="13" y="238" type="line"/>
      <point x="126" y="239" type="line"/>
      <point x="265" y="240" type="line"/>
      <point x="269" y="277" type="line"/>
      <point x="256" y="290" type="line"/>
    </contour>
    <component base="t"/>
  </outline>
</glyph>
<glyph name="iu-cy" format="2">
  <advance width="627"/>
  <unicode hex="044E"/>
  <anchor x="78" y="0" name="bottom_1"/>
  <anchor x="393" y="0" name="bottom_2"/>
  <anchor x="421" y="226" name="center"/>
  <anchor x="184" y="10" name="ogonek_1"/>
  <anchor x="465" y="40" name="ogonek_2"/>
  <anchor x="134" y="452" name="top_1"/>
  <anchor x="449" y="452" name="top_2"/>
  <anchor x="632" y="452" name="topright"/>
  <outline>
    <contour>
      <point x="128" y="191" type="line"/>
      <point x="179" y="197"/>
      <point x="242" y="200"/>
      <point x="293" y="197" type="curve"/>
      <point x="305" y="251" type="line"/>
      <point x="262" y="244"/>
      <point x="201" y="243"/>
      <point x="141" y="247" type="curve"/>
      <point x="127" y="196" type="line"/>
    </contour>
    <component base="idotless.serifless2" xOffset="3"/>
    <component base="o" xOffset="218"/>
  </outline>
</glyph>
<glyph name="psilivaria" format="2">
  <advance width="427"/>
  <unicode hex="1FCD"/>
  <guideline x="276" y="714" angle="0"/>
  <guideline x="273" y="502" angle="0"/>
  <anchor x="230" y="452" name="_top"/>
  <anchor x="264" y="714" name="top"/>
  <outline>
    <contour>
      <point x="266" y="686" type="line"/>
      <point x="329" y="505" type="line"/>
      <point x="338" y="502" type="line"/>
      <point x="365" y="509" type="line"/>
      <point x="352" y="577"/>
      <point x="346" y="642"/>
      <point x="338" y="711" type="curve"/>
      <point x="329" y="714" type="line"/>
      <point x="270" y="696" type="line"/>
    </contour>
    <contour>
      <point x="137.447" y="664.628" type="curve"/>
      <point x="139.048" y="652.315" type="line"/>
      <point x="170.03" y="643.454"/>
      <point x="186.196" y="626.185"/>
      <point x="187.496" y="601.459" type="curve" smooth="yes"/>
      <point x="188.796" y="576.733"/>
      <point x="173.128" y="548.254"/>
      <point x="143.095" y="520.927" type="curve"/>
      <point x="145.497" y="511.517" type="line"/>
      <point x="164.116" y="502.006" type="line"/>
      <point x="219.977" y="545.949"/>
      <point x="249.861" y="594.248"/>
      <point x="247.711" y="635.141" type="curve" smooth="yes"/>
      <point x="245.911" y="669.377"/>
      <point x="221.537" y="697.658"/>
      <point x="193.958" y="696.208" type="curve" smooth="yes"/>
      <point x="180.644" y="695.508"/>
      <point x="151.913" y="679.693"/>
    </contour>
  </outline>
</glyph>
<glyph name="psilioxia" format="2">
  <advance width="406"/>
  <unicode hex="1FCE"/>
  <guideline x="78" y="502" angle="0"/>
  <anchor x="230" y="452" name="_top"/>
  <anchor x="289" y="713" name="top"/>
  <outline>
    <contour>
      <point x="394" y="681" type="line"/>
      <point x="391" y="691" type="line"/>
      <point x="333" y="713" type="line"/>
      <point x="324" y="711" type="line"/>
      <point x="311" y="643"/>
      <point x="298" y="579"/>
      <point x="280" y="512" type="curve"/>
      <point x="309" y="503" type="line"/>
      <point x="318" y="505" type="line"/>
    </contour>
    <contour>
      <point x="157.447" y="664.628" type="curve"/>
      <point x="159.048" y="652.315" type="line"/>
      <point x="190.03" y="643.454"/>
      <point x="206.196" y="626.185"/>
      <point x="207.496" y="601.459" type="curve" smooth="yes"/>
      <point x="208.796" y="576.733"/>
      <point x="193.128" y="548.254"/>
      <point x="163.095" y="520.927" type="curve"/>
      <point x="165.497" y="511.517" type="line"/>
      <point x="184.116" y="502.006" type="line"/>
      <point x="239.977" y="545.949"/>
      <point x="269.861" y="594.248"/>
      <point x="267.711" y="635.141" type="curve" smooth="yes"/>
      <point x="265.911" y="669.377"/>
      <point x="241.537" y="697.658"/>
      <point x="213.958" y="696.208" type="curve" smooth="yes"/>
      <point x="200.644" y="695.508"/>
      <point x="171.913" y="679.693"/>
    </contour>
  </outline>
</glyph>
<glyph name="psiliperispomeni" format="2">
  <advance width="446"/>
  <unicode hex="1FCF"/>
  <anchor x="279" y="452" name="_top"/>
  <anchor x="295" y="779" name="top"/>
  <outline>
    <contour>
      <point x="229" y="490" type="line"/>
      <point x="277" y="524"/>
      <point x="305" y="562"/>
      <point x="305" y="597" type="curve" smooth="yes"/>
      <point x="305" y="624"/>
      <point x="286" y="649"/>
      <point x="263" y="649" type="curve" smooth="yes"/>
      <point x="251" y="649"/>
      <point x="226" y="638"/>
      <point x="212" y="625" type="curve"/>
      <point x="213" y="616" type="line"/>
      <point x="239" y="606"/>
      <point x="250" y="592"/>
      <point x="250" y="571" type="curve" smooth="yes"/>
      <point x="250" y="551"/>
      <point x="236" y="529"/>
      <point x="210" y="507" type="curve"/>
      <point x="211" y="500" type="line"/>
    </contour>
    <contour>
      <point x="163.359" y="643.027" type="line"/>
      <point x="168.813" y="643.219" type="line"/>
      <point x="168.813" y="643.219"/>
      <point x="201.595" y="694.43"/>
      <point x="222.502" y="695.166" type="curve" smooth="yes"/>
      <point x="244.318" y="695.934"/>
      <point x="307.186" y="668.113"/>
      <point x="333.547" y="669.041" type="curve"/>
      <point x="347.963" y="673.189" type="line"/>
      <point x="411.472" y="756.426" type="line"/>
      <point x="411.312" y="760.971" type="line"/>
      <point x="390.642" y="779.356" type="line"/>
      <point x="385.188" y="779.164" type="line"/>
      <point x="385.188" y="779.164"/>
      <point x="351.497" y="727.921"/>
      <point x="331.499" y="727.217" type="curve" smooth="yes"/>
      <point x="309.683" y="726.449"/>
      <point x="245.906" y="754.238"/>
      <point x="220.454" y="753.342" type="curve"/>
      <point x="206.038" y="749.194" type="line"/>
      <point x="142.529" y="665.957" type="line"/>
      <point x="142.689" y="661.412" type="line"/>
    </contour>
  </outline>
</glyph>
<glyph name="dialytikaoxia" format="2">
  <advance width="397"/>
  <unicode hex="1FEE"/>
  <anchor x="245" y="452" name="_top"/>
  <outline>
    <contour>
      <point x="356" y="564" type="curve" smooth="yes"/>
      <point x="381" y="564"/>
      <point x="401" y="585"/>
      <point x="401" y="609" type="curve" smooth="yes"/>
      <point x="401" y="628"/>
      <point x="388" y="647"/>
      <point x="364" y="647" type="curve" smooth="yes"/>
      <point x="338" y="647"/>
      <point x="319" y="626"/>
      <point x="319" y="602" type="curve" smooth="yes"/>
      <point x="319" y="584"/>
      <point x="331" y="564"/>
    </contour>
    <contour>
      <point x="149" y="564" type="curve" smooth="yes"/>
      <point x="175" y="564"/>
      <point x="194" y="585"/>
      <point x="194" y="609" type="curve" smooth="yes"/>
      <point x="194" y="628"/>
      <point x="182" y="647"/>
      <point x="157" y="647" type="curve" smooth="yes"/>
      <point x="132" y="647"/>
      <point x="112" y="626"/>
      <point x="112" y="602" type="curve" smooth="yes"/>
      <point x="112" y="584"/>
      <point x="125" y="564"/>
    </contour>
    <contour>
      <point x="323.314" y="648.898" type="line"/>
      <point x="323.526" y="658.292" type="line"/>
      <point x="280.204" y="689.048" type="line"/>
      <point x="270.81" y="689.26" type="line"/>
      <point x="242.17" y="632.49"/>
      <point x="212.716" y="576.762"/>
      <point x="179.436" y="520.562" type="curve"/>
      <point x="205.794" y="505.078" type="line"/>
      <point x="214.26" y="504.98" type="line"/>
    </contour>
  </outline>
</glyph>
<glyph name="dasiaperispomeni.case" format="2">
  <advance width="447"/>
  <anchor x="242" y="452" name="_top"/>
  <anchor x="242" y="673" name="_topleft"/>
  <anchor x="270" y="788" name="top"/>
  <outline>
    <contour>
      <point x="257" y="503" type="curve"/>
      <point x="266" y="504" type="line"/>
      <point x="279" y="522" type="line"/>
      <point x="253" y="539"/>
      <point x="241" y="559"/>
      <point x="241" y="577" type="curve" smooth="yes"/>
      <point x="241" y="595"/>
      <point x="254" y="611"/>
      <point x="281" y="617" type="curve"/>
      <point x="282" y="629" type="line"/>
      <point x="267" y="643"/>
      <point x="237" y="655"/>
      <point x="218" y="655" type="curve" smooth="yes"/>
      <point x="200" y="655"/>
      <point x="169" y="625"/>
      <point x="169" y="594" type="curve" smooth="yes"/>
      <point x="169" y="560"/>
      <point x="207" y="529"/>
    </contour>
    <contour>
      <point x="138.359" y="652.027" type="line"/>
      <point x="143.813" y="652.219" type="line"/>
      <point x="143.813" y="652.219"/>
      <point x="176.595" y="703.43"/>
      <point x="197.502" y="704.166" type="curve" smooth="yes"/>
      <point x="219.318" y="704.934"/>
      <point x="282.186" y="677.113"/>
      <point x="308.547" y="678.041" type="curve"/>
      <point x="322.963" y="682.189" type="line"/>
      <point x="386.472" y="765.426" type="line"/>
      <point x="386.312" y="769.971" type="line"/>
      <point x="365.642" y="788.356" type="line"/>
      <point x="360.188" y="788.164" type="line"/>
      <point x="360.188" y="788.164"/>
      <point x="326.497" y="736.921"/>
      <point x="306.499" y="736.217" type="curve" smooth="yes"/>
      <point x="284.683" y="735.449"/>
      <point x="220.906" y="763.238"/>
      <point x="195.454" y="762.342" type="curve"/>
      <point x="181.038" y="758.194" type="line"/>
      <point x="117.529" y="674.957" type="line"/>
      <point x="117.689" y="670.412" type="line"/>
    </contour>
  </outline>
</glyph>
<glyph name="dotaccentcomb_macroncomb.case" format="2">
  <anchor x="336" y="636" name="_top"/>
  <anchor x="367" y="887" name="top"/>
  <outline>
    <contour>
      <point x="336.812" y="693.285" type="curve" smooth="yes"/>
      <point x="370.775" y="693.285"/>
      <point x="399.077" y="721.587"/>
      <point x="399.077" y="754.606" type="curve" smooth="yes"/>
      <point x="399.077" y="776.304"/>
      <point x="385.869" y="797.059"/>
      <point x="358.51" y="797.059" type="curve" smooth="yes"/>
      <point x="324.548" y="797.059"/>
      <point x="297.189" y="768.757"/>
      <point x="297.189" y="735.738" type="curve" smooth="yes"/>
      <point x="297.189" y="714.04"/>
      <point x="309.454" y="693.285"/>
    </contour>
    <contour>
      <point x="508" y="878" type="line"/>
      <point x="504" y="888" type="line"/>
      <point x="504" y="888"/>
      <point x="427" y="882"/>
      <point x="379" y="882" type="curve" smooth="yes"/>
      <point x="322" y="882"/>
      <point x="231" y="883"/>
      <point x="231" y="883" type="curve"/>
      <point x="216" y="838" type="line"/>
      <point x="221" y="829" type="line"/>
      <point x="221" y="829"/>
      <point x="302" y="830"/>
      <point x="359" y="830" type="curve" smooth="yes"/>
      <point x="495" y="831" type="line"/>
    </contour>
  </outline>
</glyph>
<glyph name="dotaccentcomb_macroncomb" format="2">
  <anchor x="275" y="452" name="_top"/>
  <anchor x="275" y="756" name="top"/>
  <outline>
    <contour>
      <point x="306.812" y="505.285" type="curve" smooth="yes"/>
      <point x="340.775" y="505.285"/>
      <point x="369.077" y="533.587"/>
      <point x="369.077" y="566.606" type="curve" smooth="yes"/>
      <point x="369.077" y="588.304"/>
      <point x="355.869" y="609.059"/>
      <point x="328.51" y="609.059" type="curve" smooth="yes"/>
      <point x="294.548" y="609.059"/>
      <point x="267.189" y="580.757"/>
      <point x="267.189" y="547.738" type="curve" smooth="yes"/>
      <point x="267.189" y="526.04"/>
      <point x="279.454" y="505.285"/>
    </contour>
    <contour>
      <point x="478" y="690" type="line"/>
      <point x="474" y="700" type="line"/>
      <point x="474" y="700"/>
      <point x="397" y="694"/>
      <point x="349" y="694" type="curve" smooth="yes"/>
      <point x="292" y="694"/>
      <point x="201" y="695"/>
      <point x="201" y="695" type="curve"/>
      <point x="186" y="650" type="line"/>
      <point x="191" y="641" type="line"/>
      <point x="191" y="641"/>
      <point x="272" y="642"/>
      <point x="329" y="642" type="curve" smooth="yes"/>
      <point x="465" y="643" type="line"/>
    </contour>
  </outline>
</glyph>
<glyph name="eth.sc" format="2">
  <advance width="582"/>
  <anchor x="266" y="0" name="bottom"/>
  <anchor x="297" y="249" name="center"/>
  <anchor x="328" y="497" name="top"/>
  <outline>
    <contour>
      <point x="161" y="233" type="line"/>
      <point x="166" y="270" type="line"/>
      <point x="38" y="270" type="line"/>
      <point x="28" y="238" type="line"/>
      <point x="33" y="233" type="line"/>
    </contour>
    <contour>
      <point x="196" y="270" type="line"/>
      <point x="191" y="233" type="line"/>
      <point x="331" y="233" type="line"/>
      <point x="340" y="265" type="line"/>
      <point x="336" y="270" type="line"/>
    </contour>
    <component base="d.sc" xOffset="10"/>
  </outline>
</glyph>
<glyph name="hbar.sc" format="2">
  <advance width="614"/>
  <anchor x="276" y="0" name="bottom"/>
  <anchor x="486" y="106" name="bottomright"/>
  <anchor x="307" y="249" name="center"/>
  <anchor x="338" y="497" name="top"/>
  <anchor x="51" y="497" name="topleft"/>
  <outline>
    <contour>
      <point x="352" y="387" type="curve" smooth="yes"/>
      <point x="234" y="387"/>
      <point x="62" y="388"/>
      <point x="62" y="388" type="curve"/>
      <point x="56" y="355" type="line"/>
      <point x="64" y="348" type="line"/>
      <point x="64" y="348"/>
      <point x="215" y="349"/>
      <point x="333" y="349" type="curve" smooth="yes"/>
      <point x="607" y="350" type="line"/>
      <point x="610" y="381" type="line"/>
      <point x="599" y="391" type="line"/>
      <point x="599" y="391"/>
      <point x="452" y="387"/>
    </contour>
    <component base="h.sc"/>
  </outline>
</glyph>
<glyph name="lcaron.sc" format="2">
  <advance width="441"/>
  <anchor x="222" y="0" name="bottom"/>
  <anchor x="213" y="249" name="center"/>
  <anchor x="194" y="497" name="top"/>
  <anchor x="437" y="497" name="topright"/>
  <outline>
    <contour>
      <point x="444" y="489" type="curve"/>
      <point x="439" y="496" type="line"/>
      <point x="374" y="485" type="line"/>
      <point x="374" y="485"/>
      <point x="373" y="400"/>
      <point x="360" y="313" type="curve"/>
      <point x="369" y="311" type="line"/>
      <point x="396" y="323" type="line"/>
      <point x="423" y="404"/>
      <point x="444" y="489"/>
    </contour>
    <component base="l.sc"/>
  </outline>
</glyph>
<glyph name="lslash.sc" format="2">
  <advance width="426"/>
  <anchor x="222" y="0" name="bottom"/>
  <anchor x="213" y="249" name="center"/>
  <anchor x="194" y="497" name="top"/>
  <anchor x="437" y="497" name="topright"/>
  <outline>
    <contour>
      <point x="159" y="243" type="line"/>
      <point x="159" y="236" type="line"/>
      <point x="340" y="321" type="line"/>
      <point x="333" y="353" type="line"/>
      <point x="326" y="357" type="line"/>
      <point x="159" y="278" type="line"/>
      <point x="159" y="284" type="line"/>
      <point x="46" y="230" type="line"/>
      <point x="53" y="198" type="line"/>
      <point x="61" y="196" type="line"/>
    </contour>
    <component base="l.sc"/>
  </outline>
</glyph>
<glyph name="oslash.sc" format="2">
  <advance width="564"/>
  <anchor x="251" y="0" name="bottom"/>
  <anchor x="282" y="249" name="center"/>
  <anchor x="477" y="10" name="ogonek"/>
  <anchor x="283" y="507" name="top"/>
  <anchor x="51" y="497" name="topleft"/>
  <anchor x="575" y="497" name="topright"/>
  <outline>
    <contour>
      <point x="412" y="440" type="line"/>
      <point x="467" y="535" type="line"/>
      <point x="465" y="545" type="line"/>
      <point x="438" y="553" type="line"/>
      <point x="382" y="454" type="line"/>
    </contour>
    <contour>
      <point x="189" y="48" type="line"/>
      <point x="412" y="440" type="line"/>
      <point x="382" y="454" type="line"/>
      <point x="160" y="62" type="line"/>
    </contour>
    <contour>
      <point x="160" y="62" type="line"/>
      <point x="90" y="-62" type="line"/>
      <point x="92" y="-70" type="line"/>
      <point x="117" y="-77" type="line"/>
      <point x="189" y="48" type="line"/>
    </contour>
    <component base="o.sc"/>
  </outline>
</glyph>
<glyph name="psilioxia.case" format="2">
  <advance width="406"/>
  <guideline x="78" y="502" angle="0"/>
  <anchor x="230" y="452" name="_top"/>
  <anchor x="299" y="673" name="_topleft"/>
  <anchor x="281" y="713" name="top"/>
  <outline>
    <contour>
      <point x="383" y="681" type="line"/>
      <point x="380" y="691" type="line"/>
      <point x="322" y="713" type="line"/>
      <point x="313" y="711" type="line"/>
      <point x="300" y="643"/>
      <point x="287" y="579"/>
      <point x="269" y="512" type="curve"/>
      <point x="298" y="503" type="line"/>
      <point x="307" y="505" type="line"/>
    </contour>
    <contour>
      <point x="152.447" y="664.628" type="curve"/>
      <point x="154.048" y="652.315" type="line"/>
      <point x="185.03" y="643.454"/>
      <point x="201.196" y="626.185"/>
      <point x="202.496" y="601.459" type="curve" smooth="yes"/>
      <point x="203.796" y="576.733"/>
      <point x="188.128" y="548.254"/>
      <point x="158.095" y="520.927" type="curve"/>
      <point x="160.497" y="511.517" type="line"/>
      <point x="179.116" y="502.006" type="line"/>
      <point x="234.977" y="545.949"/>
      <point x="264.861" y="594.248"/>
      <point x="262.711" y="635.141" type="curve" smooth="yes"/>
      <point x="260.911" y="669.377"/>
      <point x="236.537" y="697.658"/>
      <point x="208.958" y="696.208" type="curve" smooth="yes"/>
      <point x="195.644" y="695.508"/>
      <point x="166.913" y="679.693"/>
    </contour>
  </outline>
</glyph>
<glyph name="psiliperispomeni.case" format="2">
  <advance width="447"/>
  <anchor x="241" y="452" name="_top"/>
  <anchor x="255" y="673" name="_topleft"/>
  <anchor x="279" y="779" name="top"/>
  <outline>
    <contour>
      <point x="209" y="495" type="line"/>
      <point x="259" y="521"/>
      <point x="296" y="551"/>
      <point x="296" y="585" type="curve" smooth="yes"/>
      <point x="296" y="616"/>
      <point x="265" y="646"/>
      <point x="247" y="646" type="curve" smooth="yes"/>
      <point x="228" y="646"/>
      <point x="198" y="635"/>
      <point x="183" y="620" type="curve"/>
      <point x="184" y="608" type="line"/>
      <point x="211" y="602"/>
      <point x="224" y="586"/>
      <point x="224" y="568" type="curve" smooth="yes"/>
      <point x="224" y="550"/>
      <point x="211" y="530"/>
      <point x="185" y="513" type="curve"/>
      <point x="186" y="505" type="line"/>
    </contour>
    <contour>
      <point x="148.359" y="643.027" type="line"/>
      <point x="153.813" y="643.219" type="line"/>
      <point x="153.813" y="643.219"/>
      <point x="186.595" y="694.43"/>
      <point x="207.502" y="695.166" type="curve" smooth="yes"/>
      <point x="229.318" y="695.934"/>
      <point x="292.186" y="668.113"/>
      <point x="318.547" y="669.041" type="curve"/>
      <point x="332.963" y="673.189" type="line"/>
      <point x="396.472" y="756.426" type="line"/>
      <point x="396.312" y="760.971" type="line"/>
      <point x="375.642" y="779.356" type="line"/>
      <point x="370.188" y="779.164" type="line"/>
      <point x="370.188" y="779.164"/>
      <point x="336.497" y="727.921"/>
      <point x="316.499" y="727.217" type="curve" smooth="yes"/>
      <point x="294.683" y="726.449"/>
      <point x="230.906" y="754.238"/>
      <point x="205.454" y="753.342" type="curve"/>
      <point x="191.038" y="749.194" type="line"/>
      <point x="127.529" y="665.957" type="line"/>
      <point x="127.689" y="661.412" type="line"/>
    </contour>
  </outline>
</glyph>
<glyph name="psilivaria.case" format="2">
  <advance width="427"/>
  <guideline x="276" y="714" angle="0"/>
  <guideline x="273" y="502" angle="0"/>
  <anchor x="230" y="452" name="_top"/>
  <anchor x="308" y="673" name="_topleft"/>
  <anchor x="275" y="714" name="top"/>
  <outline>
    <contour>
      <point x="274" y="686" type="line"/>
      <point x="337" y="505" type="line"/>
      <point x="346" y="502" type="line"/>
      <point x="373" y="509" type="line"/>
      <point x="360" y="577"/>
      <point x="354" y="642"/>
      <point x="346" y="711" type="curve"/>
      <point x="337" y="714" type="line"/>
      <point x="278" y="696" type="line"/>
    </contour>
    <contour>
      <point x="150.447" y="664.628" type="curve"/>
      <point x="152.048" y="652.315" type="line"/>
      <point x="183.03" y="643.454"/>
      <point x="199.196" y="626.185"/>
      <point x="200.496" y="601.459" type="curve" smooth="yes"/>
      <point x="201.796" y="576.733"/>
      <point x="186.128" y="548.254"/>
      <point x="156.095" y="520.927" type="curve"/>
      <point x="158.497" y="511.517" type="line"/>
      <point x="177.116" y="502.006" type="line"/>
      <point x="232.977" y="545.949"/>
      <point x="262.861" y="594.248"/>
      <point x="260.711" y="635.141" type="curve" smooth="yes"/>
      <point x="258.911" y="669.377"/>
      <point x="234.537" y="697.658"/>
      <point x="206.958" y="696.208" type="curve" smooth="yes"/>
      <point x="193.644" y="695.508"/>
      <point x="164.913" y="679.693"/>
    </contour>
  </outline>
</glyph>
<glyph name="shha-cy.sc" format="2">
  <advance width="487"/>
  <outline>
    <contour>
      <point x="31" y="-9" type="line"/>
      <point x="68" y="-3"/>
      <point x="106" y="0"/>
      <point x="128" y="0" type="curve" smooth="yes"/>
      <point x="155" y="0"/>
      <point x="201" y="-1"/>
      <point x="226" y="-2" type="curve"/>
      <point x="236" y="37" type="line"/>
      <point x="233" y="40" type="line"/>
      <point x="171" y="33"/>
      <point x="165" y="39"/>
      <point x="172" y="91" type="curve" smooth="yes"/>
      <point x="181" y="159"/>
      <point x="202" y="298"/>
      <point x="224" y="419" type="curve" smooth="yes"/>
      <point x="230" y="449"/>
      <point x="239" y="460"/>
      <point x="288" y="466" type="curve"/>
      <point x="293" y="504" type="line"/>
      <point x="257" y="501"/>
      <point x="219" y="498"/>
      <point x="197" y="498" type="curve" smooth="yes"/>
      <point x="176" y="498"/>
      <point x="141" y="499"/>
      <point x="102" y="500" type="curve"/>
      <point x="93" y="463" type="line"/>
      <point x="96" y="459" type="line"/>
      <point x="111" y="460"/>
      <point x="123" y="460"/>
      <point x="130" y="460" type="curve" smooth="yes"/>
      <point x="151" y="460"/>
      <point x="156" y="453"/>
      <point x="152" y="420" type="curve" smooth="yes"/>
      <point x="111" y="98" type="line" smooth="yes"/>
      <point x="105" y="54"/>
      <point x="90" y="40"/>
      <point x="38" y="30" type="curve"/>
    </contour>
    <contour>
      <point x="455" y="-2" type="line"/>
      <point x="463" y="35" type="line"/>
      <point x="461" y="39" type="line"/>
      <point x="418" y="36"/>
      <point x="416" y="38"/>
      <point x="421" y="80" type="curve" smooth="yes"/>
      <point x="431" y="163" type="line" smooth="yes"/>
      <point x="445" y="283"/>
      <point x="340" y="330"/>
      <point x="172" y="281" type="curve"/>
      <point x="168" y="237" type="line"/>
      <point x="263" y="257" type="line"/>
      <point x="337" y="256"/>
      <point x="370" y="219"/>
      <point x="360" y="146" type="curve" smooth="yes"/>
      <point x="354" y="102" type="line" smooth="yes"/>
      <point x="347" y="50"/>
      <point x="338" y="41"/>
      <point x="293" y="36" type="curve"/>
      <point x="287" y="-2" type="line"/>
      <point x="342" y="0"/>
      <point x="353" y="1"/>
      <point x="374" y="1" type="curve"/>
    </contour>
  </outline>
</glyph>
<glyph name="tildecomb_acutecomb.case" format="2">
  <anchor x="219" y="452" name="_top"/>
  <anchor x="257" y="763" name="top"/>
  <outline>
    <contour>
      <point x="95" y="501" type="line"/>
      <point x="102" y="501" type="line"/>
      <point x="102" y="501"/>
      <point x="146" y="556"/>
      <point x="169" y="556" type="curve" smooth="yes"/>
      <point x="196" y="556"/>
      <point x="273" y="523"/>
      <point x="305" y="523" type="curve"/>
      <point x="321" y="527" type="line"/>
      <point x="405" y="616" type="line"/>
      <point x="406" y="621" type="line"/>
      <point x="386" y="642" type="line"/>
      <point x="380" y="642" type="line"/>
      <point x="380" y="642"/>
      <point x="335" y="587"/>
      <point x="313" y="587" type="curve" smooth="yes"/>
      <point x="286" y="587"/>
      <point x="208" y="620"/>
      <point x="176" y="620" type="curve"/>
      <point x="161" y="616" type="line"/>
      <point x="77" y="527" type="line"/>
      <point x="76" y="522" type="line"/>
    </contour>
    <contour>
      <point x="352.631" y="697.819" type="curve"/>
      <point x="357.148" y="707.596" type="line"/>
      <point x="343.681" y="756.366" type="line"/>
      <point x="335.007" y="762.828" type="line"/>
      <point x="335.007" y="762.828"/>
      <point x="227.016" y="708.403"/>
      <point x="130.585" y="664.388" type="curve"/>
      <point x="135.321" y="640.108" type="line"/>
      <point x="143.049" y="634.697" type="line"/>
      <point x="249.994" y="669.149"/>
      <point x="352.631" y="697.819"/>
    </contour>
  </outline>
</glyph>
<glyph name="tildecomb_macroncomb" format="2">
  <anchor x="200" y="452" name="_top"/>
  <anchor x="200" y="753" name="top"/>
  <outline>
    <contour>
      <point x="99.343" y="493.786" type="line"/>
      <point x="106.073" y="493.786" type="line"/>
      <point x="106.073" y="493.786"/>
      <point x="148.379" y="546.669"/>
      <point x="170.494" y="546.669" type="curve" smooth="yes"/>
      <point x="196.454" y="546.669"/>
      <point x="270.49" y="514.939"/>
      <point x="301.257" y="514.939" type="curve"/>
      <point x="316.642" y="518.785" type="line"/>
      <point x="397.408" y="604.359" type="line"/>
      <point x="398.369" y="609.167" type="line"/>
      <point x="379.139" y="629.358" type="line"/>
      <point x="373.37" y="629.358" type="line"/>
      <point x="373.37" y="629.358"/>
      <point x="330.103" y="576.476"/>
      <point x="308.95" y="576.476" type="curve" smooth="yes"/>
      <point x="282.989" y="576.476"/>
      <point x="207.992" y="608.205"/>
      <point x="177.224" y="608.205" type="curve"/>
      <point x="162.802" y="604.359" type="line"/>
      <point x="82.035" y="518.785" type="line"/>
      <point x="81.074" y="513.978" type="line"/>
    </contour>
    <contour>
      <point x="399" y="731" type="line"/>
      <point x="395" y="741" type="line"/>
      <point x="395" y="741"/>
      <point x="318" y="735"/>
      <point x="270" y="735" type="curve" smooth="yes"/>
      <point x="213" y="735"/>
      <point x="122" y="736"/>
      <point x="122" y="736" type="curve"/>
      <point x="107" y="691" type="line"/>
      <point x="112" y="682" type="line"/>
      <point x="112" y="682"/>
      <point x="193" y="683"/>
      <point x="250" y="683" type="curve" smooth="yes"/>
      <point x="386" y="684" type="line"/>
    </contour>
  </outline>
</glyph>
